<svg xmlns="http://www.w3.org/2000/svg" width="1024" height="350" viewBox="0 0 129 45" fill="none"><path fill="#fff" fill-rule="evenodd" d="M55.674 38.26h-5.976l-.392-9.319-.555-6.627c-.139-4.647-4.275-3.467-5.527-2.906l.33 18.852-5.71-.2-.928-36.486L42.732 0l.132 14.76c6.325-2.046 9.712-2.024 10.562 7.388zM0 40.558V7.648l6.806-1.767-.017 14.02L18.281 8.67l5.911 2.301-8.353 9.387 5.54 20.446h-6.01L10.936 25.14l-4.187 4.153.057 11.51zm61.744-14.243c-.173 3.562 2.398 6.36 5.419 6 1.19-.143 3.004-1.76 3.252-4.725.326-3.873-1.397-7.186-4.245-7.125-2.849.06-4.255 2.288-4.426 5.85m-5.81-.025c.333-5.725 5.054-10.445 10.546-10.543s9.944 5.02 9.944 11.43-4.72 11.13-10.546 10.543c-5.824-.587-10.276-5.704-9.944-11.43m31.81-5.24c-2.848-.061-4.57 3.252-4.246 7.125.249 2.965 2.062 4.582 3.254 4.725 3.02.36 5.591-2.438 5.419-6-.173-3.563-1.578-5.79-4.427-5.85m.291 17.255c-5.825.587-10.545-4.133-10.545-10.543s4.452-11.528 9.944-11.429c5.491.097 10.214 4.818 10.546 10.543s-4.12 10.841-9.945 11.429m33.706.144-1.688 4.026L123.625 45l3.521-2.133-1.484-4.418zM97.886 20.244l-.979-6.848 5.078.18.006-9.616 4.541 1.906-.08 8.536 6.526.436v4.145l-6.376.361.535 12.615s.013.986 2.009.986 3.832-1.111 3.832-1.111v6.433c.087 1.955-2.64 2.783-2.64 2.783-8.717 1.341-8.077-4.518-8.077-4.518l-.284-16.288ZM116.97 3.6 129 5.948l-4.643 30.217ZM25.741 32.386c.47 4.264 4.742 3.204 4.742 3.204l.161-9.095c-4.813-.708-4.903 5.891-4.903 5.891m-1.4-13.147-1.594-4.26S34.38 9.71 35.766 19.164l-.168 20.312h-8.832s-3.876.15-5.068-4.23c0 0-2.981-11.162 8.798-13.278l.03-2.72s-2.233-2.441-6.185-.009" clip-rule="evenodd" style="fill:#fff"/></svg>